<svg width="25" height="18" viewBox="0 0 25 18" fill="none" xmlns="http://www.w3.org/2000/svg">
<path d="M2.46484 3.08789C1.64453 3.08789 0.988281 2.43164 0.988281 1.62305C0.988281 0.802734 1.64453 0.146484 2.46484 0.146484C3.28516 0.146484 3.94141 0.802734 3.94141 1.62305C3.94141 2.43164 3.28516 3.08789 2.46484 3.08789ZM7.64453 2.56055C7.10547 2.56055 6.69531 2.15039 6.69531 1.62305C6.69531 1.08398 7.10547 0.673828 7.64453 0.673828H23.6523C24.1797 0.673828 24.6016 1.08398 24.6016 1.62305C24.6016 2.15039 24.1797 2.56055 23.6523 2.56055H7.64453ZM2.46484 10.1777C1.64453 10.1777 0.988281 9.52148 0.988281 8.70117C0.988281 7.88086 1.64453 7.22461 2.46484 7.22461C3.28516 7.22461 3.94141 7.88086 3.94141 8.70117C3.94141 9.52148 3.28516 10.1777 2.46484 10.1777ZM7.64453 9.65039C7.10547 9.65039 6.69531 9.22852 6.69531 8.70117C6.69531 8.17383 7.10547 7.76367 7.64453 7.76367H23.6523C24.1797 7.76367 24.6016 8.17383 24.6016 8.70117C24.6016 9.22852 24.1797 9.65039 23.6523 9.65039H7.64453ZM2.46484 17.2676C1.64453 17.2676 0.988281 16.5996 0.988281 15.791C0.988281 14.9707 1.64453 14.3145 2.46484 14.3145C3.28516 14.3145 3.94141 14.9707 3.94141 15.791C3.94141 16.5996 3.28516 17.2676 2.46484 17.2676ZM7.64453 16.7285C7.10547 16.7285 6.69531 16.3184 6.69531 15.791C6.69531 15.252 7.10547 14.8418 7.64453 14.8418H23.6523C24.1797 14.8418 24.6016 15.252 24.6016 15.791C24.6016 16.3184 24.1797 16.7285 23.6523 16.7285H7.64453Z" fill="#868D83"/>
</svg>
