<svg width="30" height="23" viewBox="0 0 30 23" fill="none" xmlns="http://www.w3.org/2000/svg">
<path d="M4.66797 22.3438C2.21875 22.3438 0.988281 21.125 0.988281 18.7109V6.44141C0.988281 4.02734 2.21875 2.82031 4.66797 2.82031H7.9375C8.85156 2.82031 9.14453 2.62109 9.67188 2.04688L10.6094 0.992188C11.1953 0.347656 11.793 -0.00390625 13 -0.00390625H17.6758C18.8828 -0.00390625 19.4805 0.347656 20.0664 0.992188L21.0039 2.04688C21.5312 2.63281 21.8125 2.82031 22.7383 2.82031H26.0898C28.5273 2.82031 29.7695 4.02734 29.7695 6.44141V18.7109C29.7695 21.125 28.5273 22.3438 26.0898 22.3438H4.66797ZM4.69141 20.457H26.0547C27.2148 20.457 27.8828 19.8359 27.8828 18.6172V6.54688C27.8828 5.32812 27.2148 4.70703 26.0547 4.70703H22.2695C21.2148 4.70703 20.6406 4.50781 20.0547 3.85156L19.1406 2.82031C18.4727 2.07031 18.1211 1.88281 17.0898 1.88281H13.5859C12.5547 1.88281 12.2031 2.07031 11.5352 2.82031L10.6211 3.85156C10.0352 4.50781 9.46094 4.70703 8.40625 4.70703H4.69141C3.54297 4.70703 2.875 5.32812 2.875 6.54688V18.6172C2.875 19.8359 3.54297 20.457 4.69141 20.457ZM15.3789 18.7695C11.8281 18.7695 8.98047 15.9336 8.98047 12.3594C8.98047 8.79688 11.8281 5.96094 15.3789 5.96094C18.9297 5.96094 21.7656 8.79688 21.7656 12.3594C21.7656 15.9336 18.918 18.7695 15.3789 18.7695ZM22.2461 8.04688C22.2461 7.27344 22.9258 6.59375 23.7227 6.59375C24.5078 6.59375 25.1758 7.27344 25.1758 8.04688C25.1758 8.85547 24.5078 9.51172 23.7227 9.51172C22.9258 9.51172 22.2461 8.86719 22.2461 8.04688ZM15.3789 16.9883C17.9336 16.9883 19.9961 14.9375 19.9961 12.3594C19.9961 9.79297 17.9336 7.73047 15.3789 7.73047C12.8242 7.73047 10.75 9.79297 10.75 12.3594C10.75 14.9375 12.8359 16.9883 15.3789 16.9883Z" fill="#36413E"/>
</svg>
