<svg width="28" height="39" viewBox="0 0 28 39" fill="none" xmlns="http://www.w3.org/2000/svg">
<path opacity="0.8" d="M5.36328 38.5508C2.49219 38.5508 0.96875 36.9883 0.96875 33.9023V20.4453C0.96875 17.7305 2.16016 16.207 4.38672 15.875V11.1484C4.38672 3.80469 9.19141 0.25 14.2891 0.25C19.4062 0.25 24.2109 3.80469 24.2109 11.1484V15.875C26.457 16.207 27.6289 17.75 27.6289 20.4453V33.9023C27.6289 36.9883 26.1055 38.5508 23.2344 38.5508H5.36328ZM7.49219 10.7383V15.8164H21.125V10.7383C21.125 5.79688 17.9414 3.19922 14.2891 3.19922C10.6367 3.19922 7.49219 5.79688 7.49219 10.7383ZM5.46094 35.6016H23.1367C23.9961 35.6016 24.4648 35.0742 24.4648 34.1172V20.2305C24.4648 19.2734 23.9961 18.7656 23.1367 18.7656H5.46094C4.62109 18.7656 4.13281 19.2734 4.13281 20.2305V34.1172C4.13281 35.0742 4.62109 35.6016 5.46094 35.6016Z" fill="#36413E"/>
</svg>
