<svg width="22" height="23" viewBox="0 0 22 23" fill="none" xmlns="http://www.w3.org/2000/svg">
<path d="M11.2305 11.5391C8.44141 11.5391 6.16797 9.07812 6.16797 6.06641C6.16797 3.08984 8.45312 0.6875 11.2305 0.6875C14.0312 0.6875 16.293 3.04297 16.293 6.04297C16.293 9.06641 14.0195 11.5391 11.2305 11.5391ZM11.2305 9.76953C12.9531 9.76953 14.4062 8.11719 14.4062 6.04297C14.4062 3.99219 12.9766 2.45703 11.2305 2.45703C9.49609 2.45703 8.05469 4.02734 8.05469 6.06641C8.05469 8.14062 9.51953 9.76953 11.2305 9.76953ZM3.85938 22.3906C1.91406 22.3906 0.988281 21.8047 0.988281 20.5156C0.988281 17.4453 4.86719 13.0039 11.2305 13.0039C17.582 13.0039 21.4609 17.4453 21.4609 20.5156C21.4609 21.8047 20.5352 22.3906 18.5898 22.3906H3.85938ZM3.30859 20.6211H19.1523C19.457 20.6211 19.5742 20.5391 19.5742 20.293C19.5742 18.3594 16.5977 14.7734 11.2305 14.7734C5.85156 14.7734 2.875 18.3594 2.875 20.293C2.875 20.5391 3.00391 20.6211 3.30859 20.6211Z" fill="#36413E"/>
</svg>
