<svg width="30" height="26" viewBox="0 0 30 26" fill="none" xmlns="http://www.w3.org/2000/svg">
<path d="M17.9453 17.7422H23.793C26.3594 17.7422 27.6719 16.4297 27.6719 14.625C27.6719 12.5977 26.3008 11.2617 24.168 10.793C24.0273 10.7695 23.9688 10.6758 23.9805 10.5234C24.0273 9.97266 24.0625 9.33984 24.0273 8.8125C23.8281 5.32031 21.168 2.27344 17.3242 2.27344C14.2891 2.27344 12.543 3.94922 11.4062 5.97656C11.3359 6.10547 11.2539 6.12891 11.1133 6.08203C8.69922 5.37891 6.10938 6.375 6.10938 9.97266C6.10938 10.125 6.05078 10.2188 5.88672 10.2188C3.40234 10.2188 1.98438 11.8828 1.98438 14.1211C1.98438 16.1367 3.4375 17.7422 6.21484 17.7422H11.8164V19.6289H6.22656C2.38281 19.6289 0.0976562 17.168 0.0976562 14.1211C0.0976562 11.3555 1.75 9.1875 4.39844 8.77734C4.45703 5.48438 7.82031 3.42188 10.4805 4.13672C11.8867 2.08594 14.1484 0.386719 17.3242 0.386719C22.1172 0.386719 25.8789 4.16016 25.8555 9.38672C28.1406 10.3125 29.5586 12.2578 29.5586 14.625C29.5586 17.4609 27.4023 19.6289 23.8047 19.6289H17.9453V17.7422ZM14.8867 25.6289C14.3828 25.6289 13.9492 25.2188 13.9492 24.7266V13.7344L14.0195 11.5664L13.2344 12.3984L11.4531 14.168C11.2773 14.3438 11.0312 14.4492 10.8086 14.4492C10.3164 14.4492 9.96484 14.1094 9.96484 13.6289C9.96484 13.3828 10.0586 13.1719 10.2461 13.0078L14.207 9.30469C14.4531 9.08203 14.6406 9 14.8867 9C15.1211 9 15.3086 9.08203 15.5547 9.30469L19.5156 13.0078C19.7031 13.1719 19.7969 13.3828 19.7969 13.6289C19.7969 14.1094 19.4219 14.4492 18.9414 14.4492C18.7188 14.4492 18.4844 14.3438 18.3086 14.168L16.5273 12.3984L15.7422 11.5664L15.8125 13.7344V24.7266C15.8125 25.2188 15.3906 25.6289 14.8867 25.6289Z" fill="#868D83"/>
</svg>
