<svg width="36" height="37" viewBox="0 0 36 37" fill="none" xmlns="http://www.w3.org/2000/svg">
<path opacity="0.8" d="M18.0508 18.8984C13.4023 18.8984 9.61328 14.7969 9.61328 9.77734C9.61328 4.81641 13.4219 0.8125 18.0508 0.8125C22.7188 0.8125 26.4883 4.73828 26.4883 9.73828C26.4883 14.7773 22.6992 18.8984 18.0508 18.8984ZM18.0508 15.9492C20.9219 15.9492 23.3438 13.1953 23.3438 9.73828C23.3438 6.32031 20.9609 3.76172 18.0508 3.76172C15.1602 3.76172 12.7578 6.37891 12.7578 9.77734C12.7578 13.2344 15.1992 15.9492 18.0508 15.9492ZM5.76562 36.9844C2.52344 36.9844 0.980469 36.0078 0.980469 33.8594C0.980469 28.7422 7.44531 21.3398 18.0508 21.3398C28.6367 21.3398 35.1016 28.7422 35.1016 33.8594C35.1016 36.0078 33.5586 36.9844 30.3164 36.9844H5.76562ZM4.84766 34.0352H31.2539C31.7617 34.0352 31.957 33.8984 31.957 33.4883C31.957 30.2656 26.9961 24.2891 18.0508 24.2891C9.08594 24.2891 4.125 30.2656 4.125 33.4883C4.125 33.8984 4.33984 34.0352 4.84766 34.0352Z" fill="#36413E"/>
</svg>
